<svg width="244" height="331" viewBox="0 0 244 331" fill="none" xmlns="http://www.w3.org/2000/svg">
<path d="M0 48.6455L119.884 0.5L244 48.6455V265.994L119.884 331L0 265.994V48.6455Z" fill="#699673"/>
<path d="M0 48.6455L119.884 0.5L244 48.6455V265.994L119.884 331L0 265.994V48.6455Z" fill="#699673"/>
<path d="M21 63.4148L120.249 24L223 63.4148V247.071L120.249 302L21 247.071V63.4148Z" fill="white"/>
<path d="M116.061 79.9982L166.583 108.774L166.919 149.964L87.1266 100.589L116.061 79.9982Z" fill="#699673"/>
<path d="M104.35 129.82L74.0485 110.013L87.6218 100.214L117.705 119.353L104.35 129.82Z" fill="#699673"/>
<path d="M123.996 251.123L73.5673 222.183L73.3643 180.992L152.996 230.626L123.996 251.123Z" fill="#699673"/>
<path d="M135.868 201.339L166.105 221.244L152.5 231L122.479 211.763L135.868 201.339Z" fill="#699673"/>
<path d="M71 114L168 175.91V216L71 153.582V114Z" fill="#699673"/>
</svg>
