<svg width="16" height="16" viewBox="0 0 16 16" fill="none" xmlns="http://www.w3.org/2000/svg">
<rect width="16" height="16" rx="3" fill="white"/>
<path d="M10.9576 10.3187C11.8533 9.95239 12.5386 9.42162 13.0257 8.71457C13.5129 8.01933 13.7499 7.18582 13.7499 6.22453C13.7499 5.25145 13.5129 4.41794 13.0387 3.71024C12.5516 3.0032 11.8772 2.45998 10.9973 2.08123C10.1152 1.68806 9.06101 1.5 7.86265 1.5H5.57387C5.51639 1.49991 5.45945 1.5107 5.40632 1.53173C5.35319 1.55277 5.30491 1.58365 5.26424 1.6226C5.22356 1.66155 5.19129 1.70781 5.16927 1.75874C5.14726 1.80966 5.13592 1.86425 5.13592 1.91938V3.95073H7.69116C8.63947 3.95073 9.3507 4.15255 9.83851 4.5444C10.3256 4.92315 10.5757 5.49193 10.5757 6.22453C10.5757 6.93157 10.3256 7.4879 9.83851 7.89155C9.3507 8.28471 8.63947 8.48588 7.69116 8.48588H5.13592V3.95204H2.44063C2.38315 3.95195 2.32622 3.96274 2.27309 3.98377C2.21996 4.00481 2.17167 4.03569 2.131 4.07464C2.09032 4.11359 2.05805 4.15985 2.03604 4.21078C2.01402 4.2617 2.00269 4.31629 2.00269 4.37142V14.5H5.13729V10.8744H8.01979L10.6413 14.5H14L10.9576 10.3187Z" fill="black"/>
<path d="M4.31543 1.5H2V3.24041H4.31543V1.5Z" fill="black"/>
</svg>
