<svg width="120" height="135" viewBox="0 0 120 135" fill="none" xmlns="http://www.w3.org/2000/svg">
<path d="M16.9152 17.622C17.3902 15.2468 19.2468 13.3902 21.622 12.9152L46.8233 7.87495C50.536 7.1324 54 9.97216 54 13.7584V44C54 47.3137 51.3137 50 48 50H17.7584C13.9722 50 11.1324 46.5361 11.8749 42.8233L16.9152 17.622Z" stroke="#EC6519" stroke-width="4"/>
<path d="M66 13.7584C66 9.97215 69.4639 7.1324 73.1767 7.87495L98.378 12.9152C100.753 13.3902 102.61 15.2468 103.085 17.622L108.125 42.8233C108.868 46.536 106.028 50 102.242 50H72C68.6863 50 66 47.3137 66 44V13.7584Z" stroke="#8B1507" stroke-width="4"/>
<path d="M66 68C66 64.6863 68.6863 62 72 62H102.121C105.937 62 108.783 65.5148 107.99 69.2472L102.635 94.4486C102.138 96.7871 100.3 98.6074 97.9571 99.082L73.191 104.098C69.4742 104.851 66 102.01 66 98.2173V68Z" stroke="#FEC200" stroke-width="4"/>
<path d="M11.8749 69.1767C11.1324 65.464 13.9722 62 17.7584 62H48C51.3137 62 54 64.6863 54 68V98.2416C54 102.028 50.5361 104.868 46.8233 104.125L21.622 99.0848C19.2468 98.6098 17.3902 96.7532 16.9152 94.378L11.8749 69.1767Z" stroke="#00CBD2" stroke-width="4"/>
<g filter="url(#filter0_d_34_5769)">
<path d="M60 76C71.0457 76 80 67.0457 80 56C80 44.9543 71.0457 36 60 36C48.9543 36 40 44.9543 40 56C40 67.0457 48.9543 76 60 76Z" fill="#181818"/>
</g>
<path d="M60 76C71.0457 76 80 67.0457 80 56C80 44.9543 71.0457 36 60 36C48.9543 36 40 44.9543 40 56C40 67.0457 48.9543 76 60 76Z" fill="url(#paint0_radial_34_5769)"/>
<path fill-rule="evenodd" clip-rule="evenodd" d="M60.7623 45.3226L74.4576 68.8844C74.6769 69.2615 74.6202 69.7382 74.3186 70.0534C70.5254 74.0179 65.7822 76.0002 60.0892 76.0002C54.3949 76.0002 49.5964 74.0171 45.6936 70.0508C45.3854 69.7376 45.3236 69.2574 45.5424 68.8764L59.0666 45.327C59.3359 44.8581 59.9344 44.6962 60.4034 44.9656C60.5522 45.051 60.676 45.1742 60.7623 45.3226Z" fill="url(#paint1_linear_34_5769)"/>
<path fill-rule="evenodd" clip-rule="evenodd" d="M61.0664 45.8481C62.4917 50.7177 62.7303 54.5483 61.7824 57.3399C60.3604 61.5274 56.5616 64.8863 58.461 70.822C59.7905 73.6781 62.1025 75.1062 65.397 75.1062C68.0163 75.1062 70.9842 73.4208 74.301 70.05C74.6105 69.7354 74.6713 69.2527 74.4496 68.8711L61.0664 45.8481Z" fill="url(#paint2_linear_34_5769)"/>
<path d="M10 120.881H9.55432L9.74037 121.286L15.1 132.953L15.3596 133.518L15.6193 132.953L20.9789 121.286L21.1649 120.881H20.7193H10ZM33.9093 120.898H33.6236V121.183V132.604V132.89H33.9093H41.9161H42.2018V132.604V131.997V131.711H41.9161H34.7996V127.311H40.952H41.2377V127.025V126.418V126.132H40.952H34.7996V122.076H41.9161H42.2018V121.791V121.183V120.898H41.9161H33.9093ZM55.572 132.604V132.89H55.8577H56.4623H56.748V132.604V122.651L64.1507 129.902V132.604V132.89H64.4364H65.041H65.3267V132.604V121.183V120.898H65.041H64.4364H64.1507V121.183V128.251L56.6945 120.979L56.6113 120.898H56.495H55.8577H55.572V121.183V132.604ZM87.651 121.183V120.898H87.3653H78.182H77.8963V121.183V121.791V122.076H78.182H82.1938V132.604V132.89H82.4795H83.0678H83.3535V132.604V122.076H87.3653H87.651V121.791V121.183ZM101.501 132.777L105.245 127.873L109.005 132.778L109.091 132.89H109.232H110H110.578L110.227 132.431L105.997 126.894L110.227 121.357L110.578 120.898H110H109.232H109.091L109.005 121.01L105.245 125.915L101.501 121.01L101.416 120.898H101.274H100.49H99.9121L100.263 121.357L104.493 126.894L100.263 132.431L99.9121 132.89H100.49H101.274H101.416L101.501 132.777ZM19.3417 122.06L15.3601 130.706L11.3932 122.06H19.3417Z" fill="#2C2C2E" stroke="#2C2C2E" stroke-width="0.571429"/>
<defs>
<filter id="filter0_d_34_5769" x="34.125" y="33.0625" width="51.75" height="51.75" filterUnits="userSpaceOnUse" color-interpolation-filters="sRGB">
<feFlood flood-opacity="0" result="BackgroundImageFix"/>
<feColorMatrix in="SourceAlpha" type="matrix" values="0 0 0 0 0 0 0 0 0 0 0 0 0 0 0 0 0 0 127 0" result="hardAlpha"/>
<feOffset dy="2.9375"/>
<feGaussianBlur stdDeviation="2.9375"/>
<feColorMatrix type="matrix" values="0 0 0 0 0 0 0 0 0 0 0 0 0 0 0 0 0 0 0.2 0"/>
<feBlend mode="normal" in2="BackgroundImageFix" result="effect1_dropShadow_34_5769"/>
<feBlend mode="normal" in="SourceGraphic" in2="effect1_dropShadow_34_5769" result="shape"/>
</filter>
<radialGradient id="paint0_radial_34_5769" cx="0" cy="0" r="1" gradientUnits="userSpaceOnUse" gradientTransform="translate(60 36) scale(35.4653 35.4653)">
<stop stop-color="#FECA04"/>
<stop offset="1" stop-color="#FF9B1C"/>
</radialGradient>
<linearGradient id="paint1_linear_34_5769" x1="60.0013" y1="44.8353" x2="60.0013" y2="76.0002" gradientUnits="userSpaceOnUse">
<stop stop-color="#FF6C26"/>
<stop offset="1" stop-color="#6F0000"/>
</linearGradient>
<linearGradient id="paint2_linear_34_5769" x1="66.2611" y1="45.8481" x2="66.2611" y2="74.5569" gradientUnits="userSpaceOnUse">
<stop stop-color="#269DDE"/>
<stop offset="1" stop-color="#157F88"/>
</linearGradient>
</defs>
</svg>
