<svg width="40" height="11" viewBox="0 0 40 11" fill="none" xmlns="http://www.w3.org/2000/svg">
<path d="M20.5487 3.78392C19.9952 3.20299 19.2909 2.90841 18.4554 2.90841C17.62 2.90841 16.9147 3.20299 16.3593 3.78392C15.8043 4.36452 15.5229 5.09967 15.5229 5.96826C15.5229 6.83686 15.8043 7.57101 16.3596 8.14964C16.9147 8.72859 17.62 9.02219 18.4554 9.02219C19.2909 9.02219 19.9952 8.72859 20.5487 8.14964C21.1018 7.57101 21.3822 6.83686 21.3822 5.96826C21.3822 5.09967 21.1015 4.36485 20.5487 3.78392ZM19.6439 7.24974C19.3345 7.59276 18.9344 7.76641 18.4554 7.76641C17.9764 7.76641 17.5767 7.59243 17.267 7.24974C16.9561 6.9054 16.7985 6.47406 16.7985 5.96793C16.7985 5.4618 16.9561 5.02981 17.2673 4.68316C17.5767 4.33849 17.9768 4.16352 18.4554 4.16352C18.9344 4.16352 19.3342 4.33849 19.6435 4.68316C19.9545 5.02981 20.1124 5.46213 20.1124 5.96793C20.1124 6.47406 19.9545 6.9054 19.6439 7.24974ZM33.6168 9.58565C33.43 9.9468 33.0971 10.1992 32.7549 10.3883C32.1906 10.7004 31.5614 10.8635 30.9227 10.8826C29.6871 10.9199 28.4634 10.6253 27.557 9.69538C27.5563 9.69472 25.1509 7.22766 23.9987 6.0457L23.134 6.88134V8.9029H21.8584V0.114136H23.134V5.11087L25.3215 3.0267H27.1232L24.908 5.16722L28.2995 8.64358L28.3154 8.65774C29.0519 9.25087 29.839 9.56226 30.6547 9.58368C31.3606 9.60213 32.0796 9.39849 32.7339 8.99352C33.0742 8.78296 33.3377 8.59118 33.6082 8.29001C33.8409 8.66434 33.8148 9.20276 33.6168 9.58565ZM15.0468 3.02703V8.90356H13.8055V8.47684C13.6553 8.59646 13.4672 8.70915 13.2441 8.81328C12.9465 8.952 12.6187 9.02219 12.2693 9.02219C11.8695 9.02219 11.4892 8.93487 11.1381 8.7622C10.7868 8.58954 10.4876 8.34537 10.2479 8.03661C10.07 7.80299 9.93698 7.5262 9.85232 7.2125C9.76862 6.90243 9.72629 6.50405 9.72629 6.0279V3.02736H10.9962V6.21177C10.9962 6.6955 11.0958 7.0606 11.2922 7.29719C11.4106 7.44184 11.5602 7.55717 11.7374 7.64087C11.9153 7.72457 12.1057 7.76707 12.3033 7.76707C12.6012 7.76707 12.881 7.69095 13.1349 7.5407C13.3838 7.3934 13.5977 7.21382 13.7712 7.00623V3.02703H15.0468ZM37.8606 3.02703V3.43167C37.381 3.08437 36.8145 2.90841 36.1693 2.90841C35.3339 2.90841 34.6286 3.20299 34.0732 3.78392C33.5181 4.36452 33.2368 5.09967 33.2368 5.96826C33.2368 6.83686 33.5181 7.57101 34.0735 8.14964C34.6286 8.72859 35.3339 9.02219 36.1693 9.02219C36.8145 9.02219 37.381 8.84689 37.8606 8.5009V8.90356H39.0961V3.02703H37.8606ZM37.3577 7.24974C37.0484 7.59276 36.6483 7.76641 36.1693 7.76641C35.6903 7.76641 35.2906 7.59243 34.9809 7.24974C34.67 6.9054 34.5124 6.47406 34.5124 5.96793C34.5124 5.4618 34.67 5.02981 34.9812 4.68316C35.2906 4.33849 35.6906 4.16352 36.1693 4.16352C36.6483 4.16352 37.0481 4.33849 37.3574 4.68316C37.6684 5.02981 37.8262 5.46213 37.8262 5.96793C37.8262 6.47406 37.6687 6.9054 37.3577 7.24974ZM13.4223 9.38169C13.4083 9.95174 13.2177 10.3435 12.7046 10.6216C12.288 10.8477 11.8192 10.9067 11.3577 10.8783C9.57289 10.7485 8.63972 10.013 7.67919 8.92696C6.75843 7.88603 5.93444 6.63223 4.56206 6.22759C4.66932 6.03581 4.86855 5.86117 5.11649 5.74881C5.51305 5.56922 5.95385 5.58372 6.32591 5.78934C7.18046 6.26087 7.72247 7.12222 8.37174 7.83495C8.8711 8.38293 9.42012 8.89467 10.0541 9.27064C10.4831 9.52502 10.9701 9.6654 11.4609 9.70988C11.958 9.75502 12.4647 9.70428 12.944 9.55995C13.0264 9.53524 13.1082 9.50756 13.1887 9.47692C13.2635 9.44858 13.3205 9.41727 13.4223 9.38169ZM6.76066 8.67521C6.24284 8.90521 5.68173 9.02219 5.0853 9.02219C4.50414 9.02219 3.94812 8.9062 3.43253 8.67752C2.91725 8.44883 2.46913 8.13448 2.10057 7.74302C1.73202 7.35156 1.4373 6.87442 1.22438 6.32545C1.01146 5.77648 0.903564 5.18567 0.903564 4.56882C0.903564 3.95197 1.01146 3.36116 1.22438 2.81219C1.4373 2.26289 1.73202 1.78608 2.10057 1.39462C2.46913 1.00316 2.91725 0.688477 3.43253 0.460124C3.94812 0.231442 4.50414 0.115454 5.0853 0.115454C5.85996 0.115454 6.57607 0.311843 7.21388 0.699021C7.85169 1.08653 8.35964 1.6266 8.72406 2.30474C9.08816 2.98255 9.27276 3.74438 9.27276 4.56915C9.27276 5.39392 9.08816 6.15608 8.72406 6.83356C8.65882 6.95515 8.58848 7.07213 8.514 7.18482C8.43348 7.08959 8.35264 6.9914 8.26926 6.89057C8.05506 6.63124 7.83768 6.36796 7.59962 6.12083C7.82559 5.66544 7.93953 5.14646 7.93953 4.56915C7.93953 3.67749 7.66423 2.92323 7.12158 2.32681C6.5802 1.73171 5.89497 1.43021 5.08498 1.43021C4.27498 1.43021 3.58975 1.73204 3.04838 2.32681C2.50573 2.92323 2.23043 3.67749 2.23043 4.56915C2.23043 5.46477 2.50477 6.22034 3.04551 6.81445C3.58498 7.40757 4.27116 7.70809 5.08498 7.70809C5.33896 7.70809 5.5802 7.67876 5.80872 7.62044C6.13845 7.93446 6.44621 8.29957 6.76066 8.67521ZM27.6346 7.19372V0.114136H28.9102V5.11087L31.0977 3.0267H32.8994L30.6824 5.16886L33.2909 7.84022L33.2209 7.91799C32.9889 8.176 32.767 8.33581 32.4621 8.52462C32.4048 8.56021 32.3469 8.59316 32.2887 8.62512L29.7728 6.04734L28.9099 6.88101V8.4284C28.8243 8.36942 28.7393 8.30681 28.655 8.23926L27.6346 7.19372Z" fill="#244C5A"/>
</svg>
